<svg width="344" height="75" viewBox="0 0 344 75" fill="none" xmlns="http://www.w3.org/2000/svg">
<g clip-path="url(#clip0_332_1085)">
<rect width="344" height="75" fill="white"/>
<path d="M26.9 30.2085C26.9 28.4242 26.5113 26.9137 25.734 25.677C24.9566 24.4227 23.6758 23.4775 21.8914 22.8415C20.1248 22.1878 17.7221 21.861 14.6834 21.861H8.45595L8.58845 19.953H18.5525C21.7855 19.953 24.3913 20.3947 26.37 21.278C28.3486 22.1437 29.7973 23.3273 30.716 24.829C31.6346 26.3307 32.0939 28.0178 32.0939 29.8905C32.0939 31.7985 31.617 33.5652 30.663 35.1905C29.7266 36.7982 28.2603 38.0878 26.264 39.0595C24.2853 40.0135 21.7148 40.4905 18.5525 40.4905H8.58845L8.45595 38.5825H17.9694C19.6654 38.5825 21.1848 38.2645 22.5275 37.6285C23.8701 36.9925 24.9301 36.0562 25.7075 34.8195C26.5025 33.5828 26.9 32.0458 26.9 30.2085ZM12.113 19.953V54.933L16.671 56.1255V57H2.54645V56.1255L7.10445 54.933V21.9935L2.54645 20.801V19.953H12.113ZM45.3503 56.046C46.9227 56.046 48.2653 55.622 49.3783 54.774C50.509 53.9083 51.3658 52.6187 51.9488 50.905C52.5495 49.1913 52.8498 47.0448 52.8498 44.4655C52.8498 41.8332 52.5583 39.6248 51.9753 37.8405C51.3923 36.0562 50.5443 34.7047 49.4313 33.786C48.3183 32.8673 46.9668 32.408 45.3768 32.408C43.8045 32.408 42.453 32.8408 41.3223 33.7065C40.2093 34.5545 39.3525 35.8442 38.7518 37.5755C38.1512 39.2892 37.8508 41.4268 37.8508 43.9885C37.8508 46.6208 38.1423 48.838 38.7253 50.64C39.326 52.4243 40.1828 53.7758 41.2958 54.6945C42.4088 55.5955 43.7603 56.046 45.3503 56.046ZM45.2443 57.53C42.9123 57.53 40.8012 56.9735 38.9108 55.8605C37.0382 54.7298 35.5542 53.1663 34.4588 51.17C33.3812 49.1737 32.8423 46.8858 32.8423 44.3065C32.8423 41.7095 33.3988 39.404 34.5118 37.39C35.6425 35.376 37.1618 33.8037 39.0698 32.673C40.9778 31.5247 43.1067 30.9505 45.4563 30.9505C47.8413 30.9505 49.9702 31.5158 51.8428 32.6465C53.7155 33.7595 55.1907 35.3053 56.2683 37.284C57.346 39.2627 57.8848 41.5505 57.8848 44.1475C57.8848 46.7622 57.3107 49.0765 56.1623 51.0905C55.0317 53.1045 53.5123 54.6857 51.6043 55.834C49.6963 56.9647 47.5763 57.53 45.2443 57.53ZM74.7357 30.9505C76.3434 30.9505 77.6507 31.1183 78.6577 31.454C79.6647 31.7897 80.3979 32.2313 80.8572 32.779C81.3342 33.3267 81.5727 33.9097 81.5727 34.528C81.5727 35.058 81.4667 35.5173 81.2547 35.906C81.0427 36.2947 80.7424 36.595 80.3537 36.807C79.9651 37.019 79.5057 37.125 78.9757 37.125C78.6931 37.125 78.3839 36.9748 78.0482 36.6745C77.7126 36.3742 77.3416 36.0032 76.9352 35.5615C76.5289 35.1198 76.0872 34.6782 75.6102 34.2365C75.1509 33.7772 74.6474 33.3973 74.0997 33.097C73.5521 32.7967 72.9691 32.6465 72.3507 32.6465C71.1671 32.6465 70.0982 32.991 69.1442 33.68C68.1902 34.3513 67.4217 35.4025 66.8387 36.8335C66.2734 38.2468 65.9907 40.0577 65.9907 42.266C65.9907 44.8983 66.3441 47.089 67.0507 48.838C67.7574 50.5693 68.7821 51.859 70.1247 52.707C71.4851 53.5373 73.1281 53.9525 75.0537 53.9525C76.3081 53.9525 77.5182 53.6875 78.6842 53.1575C79.8679 52.6275 80.8926 51.8413 81.7582 50.799L82.2352 51.2495C81.2636 52.7688 80.2742 53.9878 79.2672 54.9065C78.2779 55.8252 77.2267 56.4965 76.1137 56.9205C75.0184 57.3268 73.8171 57.53 72.5097 57.53C70.3897 57.53 68.4817 57.0265 66.7857 56.0195C65.1074 54.9948 63.7824 53.5285 62.8107 51.6205C61.8391 49.7125 61.3532 47.4247 61.3532 44.757C61.3532 42.796 61.6712 40.9763 62.3072 39.298C62.9432 37.6197 63.8531 36.1533 65.0367 34.899C66.2204 33.6447 67.6337 32.673 69.2767 31.984C70.9197 31.295 72.7394 30.9505 74.7357 30.9505ZM95.6568 42.425L96.5048 41.312L109.304 55.251L112.405 56.1785V57H100.241V56.1785L103.686 55.3305L93.0863 43.803H91.1253V42.266H93.6163L104.084 33.309L100.347 32.4345V31.4805H110.364V32.4345L106.654 33.3355L95.6568 42.425ZM91.9733 55.2245L95.8953 56.1785V57H83.5993V56.1785L87.4683 55.2245V23.0535C87.2387 22.8945 86.9207 22.709 86.5143 22.497C86.1257 22.2673 85.6487 22.02 85.0833 21.755C84.5357 21.4723 83.9173 21.1808 83.2283 20.8805V20.377L91.8143 18.2835H92.0793L91.9733 22.5765V55.2245ZM123.7 30.9505C125.502 30.9505 127.066 31.3303 128.391 32.09C129.733 32.8497 130.802 33.9715 131.597 35.4555C132.392 36.9395 132.869 38.7592 133.028 40.9145H115.962V39.298L130.246 39.0595L128.258 40.146C128.099 38.4677 127.808 37.0632 127.384 35.9325C126.96 34.8018 126.394 33.9538 125.688 33.3885C124.981 32.8055 124.098 32.514 123.038 32.514C121.677 32.514 120.503 32.9027 119.513 33.68C118.524 34.4573 117.755 35.588 117.208 37.072C116.678 38.556 116.413 40.358 116.413 42.478C116.413 45.075 116.793 47.2303 117.552 48.944C118.33 50.64 119.434 51.9032 120.865 52.7335C122.296 53.5462 124.018 53.9525 126.032 53.9525C126.898 53.9525 127.746 53.8377 128.576 53.608C129.407 53.3783 130.202 53.0338 130.961 52.5745C131.721 52.0975 132.392 51.5057 132.975 50.799L133.479 51.2495C132.472 52.7688 131.447 53.9878 130.405 54.9065C129.362 55.8252 128.267 56.4965 127.119 56.9205C125.97 57.3268 124.725 57.53 123.382 57.53C121.174 57.53 119.186 57.0177 117.42 55.993C115.671 54.9683 114.284 53.502 113.259 51.594C112.252 49.6683 111.749 47.354 111.749 44.651C111.749 42.16 112.217 39.881 113.153 37.814C114.107 35.7293 115.476 34.0687 117.261 32.832C119.045 31.5777 121.192 30.9505 123.7 30.9505ZM143.241 50.269C143.241 51.5233 143.63 52.4685 144.407 53.1045C145.202 53.7405 146.271 54.0585 147.614 54.0585C148.32 54.0585 149.071 53.9967 149.866 53.873C150.679 53.7317 151.606 53.5108 152.649 53.2105V54.138C151.218 55.0213 150.034 55.7103 149.098 56.205C148.179 56.682 147.375 57.0177 146.686 57.212C145.997 57.4063 145.291 57.5035 144.566 57.5035C143.506 57.5035 142.535 57.2827 141.651 56.841C140.768 56.3817 140.061 55.675 139.531 54.721C139.001 53.767 138.736 52.5392 138.736 51.0375V34.9255L135.53 32.885V32.4875C135.777 32.2932 136.086 32.0812 136.457 31.8515C136.828 31.6042 137.235 31.3215 137.676 31.0035C138.136 30.6855 138.63 30.341 139.16 29.97C139.69 29.599 140.264 29.2103 140.883 28.804C141.501 28.38 142.137 27.9472 142.791 27.5055H143.241V32.355V50.269ZM141.651 34.1835V31.4805H151.907L151.483 34.1835H141.651Z" fill="#827717"/>
<path d="M184.09 58.9875H183.321L179.426 57H162.333V54.3765H182.129L178.525 55.4365L185.918 44.6775L187.084 44.969L184.09 58.9875ZM167.66 22.2585V57H153.853V55.993L157.881 54.668V22.2585L153.853 20.96V19.953H171.688V20.96L167.66 22.2585ZM195.359 27.002C193.981 27.002 192.877 26.5603 192.046 25.677C191.234 24.7937 190.827 23.7425 190.827 22.5235C190.827 21.3222 191.234 20.3063 192.046 19.476C192.877 18.6457 193.981 18.2305 195.359 18.2305C196.755 18.2305 197.85 18.6457 198.645 19.476C199.44 20.3063 199.837 21.3222 199.837 22.5235C199.837 23.7425 199.44 24.7937 198.645 25.677C197.85 26.5603 196.755 27.002 195.359 27.002ZM199.97 30.5795L199.864 36.118V55.0655L202.726 56.099V57H188.336V56.099L191.304 55.039V37.4165C191.092 37.1692 190.819 36.8953 190.483 36.595C190.165 36.2947 189.794 35.959 189.37 35.588C188.964 35.217 188.495 34.8195 187.965 34.3955V33.5475L199.254 30.5795H199.97ZM208.61 55.357L211.737 55.198L205.986 57.901L205.377 57.53L206.516 51.329V25.2795C206.269 25.0322 205.951 24.7407 205.562 24.405C205.191 24.0693 204.732 23.6983 204.184 23.292C203.654 22.868 203.045 22.3998 202.356 21.8875V21.013L214.652 18.098H215.314L215.076 23.5305V50.958C215.076 51.8943 215.244 52.7158 215.579 53.4225C215.915 54.1292 216.392 54.6768 217.01 55.0655C217.629 55.4542 218.362 55.6485 219.21 55.6485C220.323 55.6485 221.268 55.2952 222.045 54.5885C222.84 53.8642 223.45 52.6982 223.874 51.0905C224.298 49.4828 224.51 47.3452 224.51 44.6775C224.51 42.4338 224.298 40.623 223.874 39.245C223.45 37.867 222.814 36.86 221.966 36.224C221.118 35.588 220.058 35.27 218.786 35.27C218.185 35.27 217.593 35.3318 217.01 35.4555C216.445 35.5615 215.88 35.747 215.314 36.012C214.767 36.277 214.219 36.6303 213.671 37.072L213.115 35.853C214.193 34.846 215.182 34.0068 216.083 33.3355C216.984 32.6642 217.823 32.1342 218.6 31.7455C219.395 31.3392 220.155 31.0565 220.879 30.8975C221.621 30.7208 222.363 30.6325 223.105 30.6325C225.296 30.6325 227.151 31.1095 228.67 32.0635C230.207 33.0175 231.373 34.3867 232.168 36.171C232.981 37.9377 233.387 40.093 233.387 42.637C233.387 45.0927 232.999 47.2657 232.221 49.156C231.462 51.0287 230.402 52.601 229.041 53.873C227.681 55.145 226.1 56.099 224.298 56.735C222.496 57.371 220.57 57.689 218.521 57.689C217.355 57.689 216.233 57.6095 215.155 57.4505C214.078 57.3092 213 57.0707 211.922 56.735C210.862 56.3817 209.758 55.9223 208.61 55.357ZM255.816 30.818C256.876 30.818 257.671 31.1272 258.201 31.7455C258.748 32.3638 259.022 33.15 259.022 34.104C259.022 35.376 258.616 36.4095 257.803 37.2045C256.991 37.9818 256.028 38.3705 254.915 38.3705C254.173 38.3705 253.546 38.3087 253.033 38.185C252.521 38.0437 252.026 37.9023 251.549 37.761C251.072 37.6197 250.507 37.549 249.853 37.549C249.376 37.549 248.935 37.602 248.528 37.708C248.122 37.814 247.733 37.9818 247.362 38.2115C246.991 38.4412 246.62 38.7415 246.249 39.1125L246.011 37.814C247.318 36.3653 248.44 35.1905 249.376 34.2895C250.33 33.3708 251.178 32.6642 251.92 32.1695C252.662 31.6572 253.342 31.3038 253.961 31.1095C254.579 30.9152 255.197 30.818 255.816 30.818ZM247.283 36.065V54.986L250.728 56.099V57H235.755V56.099L238.723 55.039V37.5755C238.476 37.2752 238.211 37.0013 237.928 36.754C237.646 36.489 237.301 36.1887 236.895 35.853C236.488 35.5173 235.985 35.0845 235.384 34.5545V33.7595L246.408 30.5795H247.044L247.283 36.065ZM274.93 40.8085L274.956 42.5045C273.437 42.9815 272.209 43.4585 271.273 43.9355C270.336 44.3948 269.612 44.8807 269.1 45.393C268.605 45.8877 268.261 46.4265 268.066 47.0095C267.89 47.5925 267.801 48.2462 267.801 48.9705C267.801 50.2955 268.075 51.2583 268.623 51.859C269.17 52.4597 269.877 52.76 270.743 52.76C271.326 52.76 271.838 52.6275 272.28 52.3625C272.739 52.0975 273.092 51.7088 273.34 51.1965C273.587 50.6665 273.711 50.0217 273.711 49.262V37.549C273.711 36.277 273.366 35.2788 272.677 34.5545C271.988 33.8125 270.919 33.4415 269.471 33.4415C268.764 33.4415 268.102 33.4857 267.483 33.574C266.865 33.6623 266.326 33.7772 265.867 33.9185L266.9 32.2755C266.777 33.4238 266.644 34.369 266.503 35.111C266.379 35.853 266.238 36.4537 266.079 36.913C265.92 37.3547 265.734 37.708 265.522 37.973C265.24 38.3263 264.824 38.6267 264.277 38.874C263.729 39.1037 263.12 39.2185 262.448 39.2185C261.583 39.2185 260.938 39.0683 260.514 38.768C260.09 38.4677 259.878 38.0525 259.878 37.5225C259.878 36.7452 260.258 35.959 261.017 35.164C261.777 34.3513 262.793 33.6093 264.065 32.938C265.337 32.249 266.759 31.7013 268.331 31.295C269.921 30.8887 271.538 30.6855 273.181 30.6855C275.442 30.6855 277.235 31.0212 278.56 31.6925C279.903 32.3462 280.857 33.2737 281.422 34.475C282.005 35.6587 282.297 37.0632 282.297 38.6885V51.9385C282.297 52.3802 282.359 52.7512 282.482 53.0515C282.624 53.3342 282.818 53.5462 283.065 53.6875C283.33 53.8112 283.648 53.873 284.019 53.873C284.426 53.873 284.841 53.82 285.265 53.714C285.689 53.5903 286.122 53.4048 286.563 53.1575V54.615C285.344 55.7103 284.161 56.4965 283.012 56.9735C281.864 57.4505 280.636 57.689 279.329 57.689C278.021 57.689 276.97 57.4505 276.175 56.9735C275.38 56.4788 274.797 55.7457 274.426 54.774C274.073 53.7847 273.87 52.5568 273.817 51.0905L274.135 51.223C273.799 52.654 273.287 53.8465 272.598 54.8005C271.909 55.7545 271.087 56.47 270.133 56.947C269.197 57.424 268.146 57.6625 266.98 57.6625C264.648 57.6625 262.828 57.0795 261.521 55.9135C260.213 54.7298 259.56 53.0868 259.56 50.9845C259.56 49.9245 259.754 48.9705 260.143 48.1225C260.531 47.2745 261.256 46.4707 262.316 45.711C263.393 44.9513 264.939 44.174 266.953 43.379C268.985 42.584 271.644 41.7272 274.93 40.8085ZM307.195 30.818C308.255 30.818 309.05 31.1272 309.58 31.7455C310.127 32.3638 310.401 33.15 310.401 34.104C310.401 35.376 309.995 36.4095 309.182 37.2045C308.369 37.9818 307.407 38.3705 306.294 38.3705C305.552 38.3705 304.924 38.3087 304.412 38.185C303.9 38.0437 303.405 37.9023 302.928 37.761C302.451 37.6197 301.886 37.549 301.232 37.549C300.755 37.549 300.313 37.602 299.907 37.708C299.501 37.814 299.112 37.9818 298.741 38.2115C298.37 38.4412 297.999 38.7415 297.628 39.1125L297.39 37.814C298.697 36.3653 299.819 35.1905 300.755 34.2895C301.709 33.3708 302.557 32.6642 303.299 32.1695C304.041 31.6572 304.721 31.3038 305.34 31.1095C305.958 30.9152 306.576 30.818 307.195 30.818ZM298.662 36.065V54.986L302.107 56.099V57H287.134V56.099L290.102 55.039V37.5755C289.855 37.2752 289.59 37.0013 289.307 36.754C289.024 36.489 288.68 36.1887 288.274 35.853C287.867 35.5173 287.364 35.0845 286.763 34.5545V33.7595L297.787 30.5795H298.423L298.662 36.065ZM331.019 50.3485L326.885 59.862L313.131 33.4945L310.216 32.302V31.348H325.772V32.3285L322.698 33.2295L331.019 50.3485ZM318.405 69.826C317.168 69.826 316.143 69.4815 315.331 68.7925C314.518 68.1212 314.112 67.1672 314.112 65.9305C314.112 65.3298 314.218 64.8087 314.43 64.367C314.659 63.943 314.933 63.6073 315.251 63.36C315.569 63.1303 315.87 63.0155 316.152 63.0155C316.347 63.0155 316.629 63.095 317 63.254C317.371 63.4307 317.831 63.6073 318.378 63.784C318.944 63.9607 319.597 64.049 320.339 64.049C321.187 64.049 321.92 63.9518 322.539 63.7575C323.175 63.5808 323.731 63.2452 324.208 62.7505C324.703 62.2735 325.162 61.5933 325.586 60.71L327.547 56.523L329.773 51.2495L336.345 33.1235L333.298 32.3285V31.348H341.645V32.3285L338.889 33.15L328.13 60.0475C327.106 62.5915 326.107 64.5702 325.136 65.9835C324.164 67.3968 323.139 68.3862 322.062 68.9515C321.002 69.5345 319.783 69.826 318.405 69.826Z" fill="#AEEA00"/>
</g>
<defs>
<clipPath id="clip0_332_1085">
<rect width="344" height="75" fill="white"/>
</clipPath>
</defs>
</svg>
