<svg width="379" height="86" viewBox="0 0 379 86" fill="none" xmlns="http://www.w3.org/2000/svg">
<g clip-path="url(#clip0_332_1085)">
<rect width="379" height="86" fill="white"/>
<path d="M42.9 30.2085C42.9 28.4242 42.5113 26.9137 41.734 25.677C40.9566 24.4227 39.6758 23.4775 37.8914 22.8415C36.1248 22.1878 33.7221 21.861 30.6834 21.861H24.4559L24.5884 19.953H34.5525C37.7855 19.953 40.3913 20.3947 42.37 21.278C44.3486 22.1437 45.7973 23.3273 46.716 24.829C47.6346 26.3307 48.0939 28.0178 48.0939 29.8905C48.0939 31.7985 47.617 33.5652 46.663 35.1905C45.7266 36.7982 44.2603 38.0878 42.264 39.0595C40.2853 40.0135 37.7148 40.4905 34.5525 40.4905H24.5884L24.4559 38.5825H33.9694C35.6654 38.5825 37.1848 38.2645 38.5275 37.6285C39.8701 36.9925 40.9301 36.0562 41.7075 34.8195C42.5025 33.5828 42.9 32.0458 42.9 30.2085ZM28.113 19.953V54.933L32.671 56.1255V57H18.5464V56.1255L23.1044 54.933V21.9935L18.5464 20.801V19.953H28.113ZM61.3503 56.046C62.9227 56.046 64.2653 55.622 65.3783 54.774C66.509 53.9083 67.3658 52.6187 67.9488 50.905C68.5495 49.1913 68.8498 47.0448 68.8498 44.4655C68.8498 41.8332 68.5583 39.6248 67.9753 37.8405C67.3923 36.0562 66.5443 34.7047 65.4313 33.786C64.3183 32.8673 62.9668 32.408 61.3768 32.408C59.8045 32.408 58.453 32.8408 57.3223 33.7065C56.2093 34.5545 55.3525 35.8442 54.7518 37.5755C54.1512 39.2892 53.8508 41.4268 53.8508 43.9885C53.8508 46.6208 54.1423 48.838 54.7253 50.64C55.326 52.4243 56.1828 53.7758 57.2958 54.6945C58.4088 55.5955 59.7603 56.046 61.3503 56.046ZM61.2443 57.53C58.9123 57.53 56.8012 56.9735 54.9108 55.8605C53.0382 54.7298 51.5542 53.1663 50.4588 51.17C49.3812 49.1737 48.8423 46.8858 48.8423 44.3065C48.8423 41.7095 49.3988 39.404 50.5118 37.39C51.6425 35.376 53.1618 33.8037 55.0698 32.673C56.9778 31.5247 59.1067 30.9505 61.4563 30.9505C63.8413 30.9505 65.9702 31.5158 67.8428 32.6465C69.7155 33.7595 71.1907 35.3053 72.2683 37.284C73.346 39.2627 73.8848 41.5505 73.8848 44.1475C73.8848 46.7622 73.3107 49.0765 72.1623 51.0905C71.0317 53.1045 69.5123 54.6857 67.6043 55.834C65.6963 56.9647 63.5763 57.53 61.2443 57.53ZM90.7357 30.9505C92.3434 30.9505 93.6507 31.1183 94.6577 31.454C95.6647 31.7897 96.3979 32.2313 96.8572 32.779C97.3342 33.3267 97.5727 33.9097 97.5727 34.528C97.5727 35.058 97.4667 35.5173 97.2547 35.906C97.0427 36.2947 96.7424 36.595 96.3537 36.807C95.9651 37.019 95.5057 37.125 94.9757 37.125C94.6931 37.125 94.3839 36.9748 94.0482 36.6745C93.7126 36.3742 93.3416 36.0032 92.9352 35.5615C92.5289 35.1198 92.0872 34.6782 91.6102 34.2365C91.1509 33.7772 90.6474 33.3973 90.0997 33.097C89.5521 32.7967 88.9691 32.6465 88.3507 32.6465C87.1671 32.6465 86.0982 32.991 85.1442 33.68C84.1902 34.3513 83.4217 35.4025 82.8387 36.8335C82.2734 38.2468 81.9907 40.0577 81.9907 42.266C81.9907 44.8983 82.3441 47.089 83.0507 48.838C83.7574 50.5693 84.7821 51.859 86.1247 52.707C87.4851 53.5373 89.1281 53.9525 91.0537 53.9525C92.3081 53.9525 93.5182 53.6875 94.6842 53.1575C95.8679 52.6275 96.8926 51.8413 97.7582 50.799L98.2352 51.2495C97.2636 52.7688 96.2742 53.9878 95.2672 54.9065C94.2779 55.8252 93.2267 56.4965 92.1137 56.9205C91.0184 57.3268 89.8171 57.53 88.5097 57.53C86.3897 57.53 84.4817 57.0265 82.7857 56.0195C81.1074 54.9948 79.7824 53.5285 78.8107 51.6205C77.8391 49.7125 77.3532 47.4247 77.3532 44.757C77.3532 42.796 77.6712 40.9763 78.3072 39.298C78.9432 37.6197 79.8531 36.1533 81.0367 34.899C82.2204 33.6447 83.6337 32.673 85.2767 31.984C86.9197 31.295 88.7394 30.9505 90.7357 30.9505ZM111.657 42.425L112.505 41.312L125.304 55.251L128.405 56.1785V57H116.241V56.1785L119.686 55.3305L109.086 43.803H107.125V42.266H109.616L120.084 33.309L116.347 32.4345V31.4805H126.364V32.4345L122.654 33.3355L111.657 42.425ZM107.973 55.2245L111.895 56.1785V57H99.5993V56.1785L103.468 55.2245V23.0535C103.239 22.8945 102.921 22.709 102.514 22.497C102.126 22.2673 101.649 22.02 101.083 21.755C100.536 21.4723 99.9173 21.1808 99.2283 20.8805V20.377L107.814 18.2835H108.079L107.973 22.5765V55.2245ZM139.7 30.9505C141.502 30.9505 143.066 31.3303 144.391 32.09C145.733 32.8497 146.802 33.9715 147.597 35.4555C148.392 36.9395 148.869 38.7592 149.028 40.9145H131.962V39.298L146.246 39.0595L144.258 40.146C144.099 38.4677 143.808 37.0632 143.384 35.9325C142.96 34.8018 142.394 33.9538 141.688 33.3885C140.981 32.8055 140.098 32.514 139.038 32.514C137.677 32.514 136.503 32.9027 135.513 33.68C134.524 34.4573 133.755 35.588 133.208 37.072C132.678 38.556 132.413 40.358 132.413 42.478C132.413 45.075 132.793 47.2303 133.552 48.944C134.33 50.64 135.434 51.9032 136.865 52.7335C138.296 53.5462 140.018 53.9525 142.032 53.9525C142.898 53.9525 143.746 53.8377 144.576 53.608C145.407 53.3783 146.202 53.0338 146.961 52.5745C147.721 52.0975 148.392 51.5057 148.975 50.799L149.479 51.2495C148.472 52.7688 147.447 53.9878 146.405 54.9065C145.362 55.8252 144.267 56.4965 143.119 56.9205C141.97 57.3268 140.725 57.53 139.382 57.53C137.174 57.53 135.186 57.0177 133.42 55.993C131.671 54.9683 130.284 53.502 129.259 51.594C128.252 49.6683 127.749 47.354 127.749 44.651C127.749 42.16 128.217 39.881 129.153 37.814C130.107 35.7293 131.476 34.0687 133.261 32.832C135.045 31.5777 137.192 30.9505 139.7 30.9505ZM159.241 50.269C159.241 51.5233 159.63 52.4685 160.407 53.1045C161.202 53.7405 162.271 54.0585 163.614 54.0585C164.32 54.0585 165.071 53.9967 165.866 53.873C166.679 53.7317 167.606 53.5108 168.649 53.2105V54.138C167.218 55.0213 166.034 55.7103 165.098 56.205C164.179 56.682 163.375 57.0177 162.686 57.212C161.997 57.4063 161.291 57.5035 160.566 57.5035C159.506 57.5035 158.535 57.2827 157.651 56.841C156.768 56.3817 156.061 55.675 155.531 54.721C155.001 53.767 154.736 52.5392 154.736 51.0375V34.9255L151.53 32.885V32.4875C151.777 32.2932 152.086 32.0812 152.457 31.8515C152.828 31.6042 153.235 31.3215 153.676 31.0035C154.136 30.6855 154.63 30.341 155.16 29.97C155.69 29.599 156.264 29.2103 156.883 28.804C157.501 28.38 158.137 27.9472 158.791 27.5055H159.241V32.355V50.269ZM157.651 34.1835V31.4805H167.907L167.483 34.1835H157.651Z" fill="#827717"/>
<path d="M200.09 58.9875H199.321L195.426 57H178.333V54.3765H198.129L194.525 55.4365L201.918 44.6775L203.084 44.969L200.09 58.9875ZM183.66 22.2585V57H169.853V55.993L173.881 54.668V22.2585L169.853 20.96V19.953H187.688V20.96L183.66 22.2585ZM211.359 27.002C209.981 27.002 208.877 26.5603 208.046 25.677C207.234 24.7937 206.827 23.7425 206.827 22.5235C206.827 21.3222 207.234 20.3063 208.046 19.476C208.877 18.6457 209.981 18.2305 211.359 18.2305C212.755 18.2305 213.85 18.6457 214.645 19.476C215.44 20.3063 215.837 21.3222 215.837 22.5235C215.837 23.7425 215.44 24.7937 214.645 25.677C213.85 26.5603 212.755 27.002 211.359 27.002ZM215.97 30.5795L215.864 36.118V55.0655L218.726 56.099V57H204.336V56.099L207.304 55.039V37.4165C207.092 37.1692 206.819 36.8953 206.483 36.595C206.165 36.2947 205.794 35.959 205.37 35.588C204.964 35.217 204.495 34.8195 203.965 34.3955V33.5475L215.254 30.5795H215.97ZM224.61 55.357L227.737 55.198L221.986 57.901L221.377 57.53L222.516 51.329V25.2795C222.269 25.0322 221.951 24.7407 221.562 24.405C221.191 24.0693 220.732 23.6983 220.184 23.292C219.654 22.868 219.045 22.3998 218.356 21.8875V21.013L230.652 18.098H231.314L231.076 23.5305V50.958C231.076 51.8943 231.244 52.7158 231.579 53.4225C231.915 54.1292 232.392 54.6768 233.01 55.0655C233.629 55.4542 234.362 55.6485 235.21 55.6485C236.323 55.6485 237.268 55.2952 238.045 54.5885C238.84 53.8642 239.45 52.6982 239.874 51.0905C240.298 49.4828 240.51 47.3452 240.51 44.6775C240.51 42.4338 240.298 40.623 239.874 39.245C239.45 37.867 238.814 36.86 237.966 36.224C237.118 35.588 236.058 35.27 234.786 35.27C234.185 35.27 233.593 35.3318 233.01 35.4555C232.445 35.5615 231.88 35.747 231.314 36.012C230.767 36.277 230.219 36.6303 229.671 37.072L229.115 35.853C230.193 34.846 231.182 34.0068 232.083 33.3355C232.984 32.6642 233.823 32.1342 234.6 31.7455C235.395 31.3392 236.155 31.0565 236.879 30.8975C237.621 30.7208 238.363 30.6325 239.105 30.6325C241.296 30.6325 243.151 31.1095 244.67 32.0635C246.207 33.0175 247.373 34.3867 248.168 36.171C248.981 37.9377 249.387 40.093 249.387 42.637C249.387 45.0927 248.999 47.2657 248.221 49.156C247.462 51.0287 246.402 52.601 245.041 53.873C243.681 55.145 242.1 56.099 240.298 56.735C238.496 57.371 236.57 57.689 234.521 57.689C233.355 57.689 232.233 57.6095 231.155 57.4505C230.078 57.3092 229 57.0707 227.922 56.735C226.862 56.3817 225.758 55.9223 224.61 55.357ZM271.816 30.818C272.876 30.818 273.671 31.1272 274.201 31.7455C274.748 32.3638 275.022 33.15 275.022 34.104C275.022 35.376 274.616 36.4095 273.803 37.2045C272.991 37.9818 272.028 38.3705 270.915 38.3705C270.173 38.3705 269.546 38.3087 269.033 38.185C268.521 38.0437 268.026 37.9023 267.549 37.761C267.072 37.6197 266.507 37.549 265.853 37.549C265.376 37.549 264.935 37.602 264.528 37.708C264.122 37.814 263.733 37.9818 263.362 38.2115C262.991 38.4412 262.62 38.7415 262.249 39.1125L262.011 37.814C263.318 36.3653 264.44 35.1905 265.376 34.2895C266.33 33.3708 267.178 32.6642 267.92 32.1695C268.662 31.6572 269.342 31.3038 269.961 31.1095C270.579 30.9152 271.197 30.818 271.816 30.818ZM263.283 36.065V54.986L266.728 56.099V57H251.755V56.099L254.723 55.039V37.5755C254.476 37.2752 254.211 37.0013 253.928 36.754C253.646 36.489 253.301 36.1887 252.895 35.853C252.488 35.5173 251.985 35.0845 251.384 34.5545V33.7595L262.408 30.5795H263.044L263.283 36.065ZM290.93 40.8085L290.956 42.5045C289.437 42.9815 288.209 43.4585 287.273 43.9355C286.336 44.3948 285.612 44.8807 285.1 45.393C284.605 45.8877 284.261 46.4265 284.066 47.0095C283.89 47.5925 283.801 48.2462 283.801 48.9705C283.801 50.2955 284.075 51.2583 284.623 51.859C285.17 52.4597 285.877 52.76 286.743 52.76C287.326 52.76 287.838 52.6275 288.28 52.3625C288.739 52.0975 289.092 51.7088 289.34 51.1965C289.587 50.6665 289.711 50.0217 289.711 49.262V37.549C289.711 36.277 289.366 35.2788 288.677 34.5545C287.988 33.8125 286.919 33.4415 285.471 33.4415C284.764 33.4415 284.102 33.4857 283.483 33.574C282.865 33.6623 282.326 33.7772 281.867 33.9185L282.9 32.2755C282.777 33.4238 282.644 34.369 282.503 35.111C282.379 35.853 282.238 36.4537 282.079 36.913C281.92 37.3547 281.734 37.708 281.522 37.973C281.24 38.3263 280.824 38.6267 280.277 38.874C279.729 39.1037 279.12 39.2185 278.448 39.2185C277.583 39.2185 276.938 39.0683 276.514 38.768C276.09 38.4677 275.878 38.0525 275.878 37.5225C275.878 36.7452 276.258 35.959 277.017 35.164C277.777 34.3513 278.793 33.6093 280.065 32.938C281.337 32.249 282.759 31.7013 284.331 31.295C285.921 30.8887 287.538 30.6855 289.181 30.6855C291.442 30.6855 293.235 31.0212 294.56 31.6925C295.903 32.3462 296.857 33.2737 297.422 34.475C298.005 35.6587 298.297 37.0632 298.297 38.6885V51.9385C298.297 52.3802 298.359 52.7512 298.482 53.0515C298.624 53.3342 298.818 53.5462 299.065 53.6875C299.33 53.8112 299.648 53.873 300.019 53.873C300.426 53.873 300.841 53.82 301.265 53.714C301.689 53.5903 302.122 53.4048 302.563 53.1575V54.615C301.344 55.7103 300.161 56.4965 299.012 56.9735C297.864 57.4505 296.636 57.689 295.329 57.689C294.021 57.689 292.97 57.4505 292.175 56.9735C291.38 56.4788 290.797 55.7457 290.426 54.774C290.073 53.7847 289.87 52.5568 289.817 51.0905L290.135 51.223C289.799 52.654 289.287 53.8465 288.598 54.8005C287.909 55.7545 287.087 56.47 286.133 56.947C285.197 57.424 284.146 57.6625 282.98 57.6625C280.648 57.6625 278.828 57.0795 277.521 55.9135C276.213 54.7298 275.56 53.0868 275.56 50.9845C275.56 49.9245 275.754 48.9705 276.143 48.1225C276.531 47.2745 277.256 46.4707 278.316 45.711C279.393 44.9513 280.939 44.174 282.953 43.379C284.985 42.584 287.644 41.7272 290.93 40.8085ZM323.195 30.818C324.255 30.818 325.05 31.1272 325.58 31.7455C326.127 32.3638 326.401 33.15 326.401 34.104C326.401 35.376 325.995 36.4095 325.182 37.2045C324.369 37.9818 323.407 38.3705 322.294 38.3705C321.552 38.3705 320.924 38.3087 320.412 38.185C319.9 38.0437 319.405 37.9023 318.928 37.761C318.451 37.6197 317.886 37.549 317.232 37.549C316.755 37.549 316.313 37.602 315.907 37.708C315.501 37.814 315.112 37.9818 314.741 38.2115C314.37 38.4412 313.999 38.7415 313.628 39.1125L313.39 37.814C314.697 36.3653 315.819 35.1905 316.755 34.2895C317.709 33.3708 318.557 32.6642 319.299 32.1695C320.041 31.6572 320.721 31.3038 321.34 31.1095C321.958 30.9152 322.576 30.818 323.195 30.818ZM314.662 36.065V54.986L318.107 56.099V57H303.134V56.099L306.102 55.039V37.5755C305.855 37.2752 305.59 37.0013 305.307 36.754C305.024 36.489 304.68 36.1887 304.274 35.853C303.867 35.5173 303.364 35.0845 302.763 34.5545V33.7595L313.787 30.5795H314.423L314.662 36.065ZM347.019 50.3485L342.885 59.862L329.131 33.4945L326.216 32.302V31.348H341.772V32.3285L338.698 33.2295L347.019 50.3485ZM334.405 69.826C333.168 69.826 332.143 69.4815 331.331 68.7925C330.518 68.1212 330.112 67.1672 330.112 65.9305C330.112 65.3298 330.218 64.8087 330.43 64.367C330.659 63.943 330.933 63.6073 331.251 63.36C331.569 63.1303 331.87 63.0155 332.152 63.0155C332.347 63.0155 332.629 63.095 333 63.254C333.371 63.4307 333.831 63.6073 334.378 63.784C334.944 63.9607 335.597 64.049 336.339 64.049C337.187 64.049 337.92 63.9518 338.539 63.7575C339.175 63.5808 339.731 63.2452 340.208 62.7505C340.703 62.2735 341.162 61.5933 341.586 60.71L343.547 56.523L345.773 51.2495L352.345 33.1235L349.298 32.3285V31.348H357.645V32.3285L354.889 33.15L344.13 60.0475C343.106 62.5915 342.107 64.5702 341.136 65.9835C340.164 67.3968 339.139 68.3862 338.062 68.9515C337.002 69.5345 335.783 69.826 334.405 69.826Z" fill="#AEEA00"/>
</g>
<defs>
<clipPath id="clip0_332_1085">
<rect width="379" height="86" fill="white"/>
</clipPath>
</defs>
</svg>
